<svg id="Layer_1" data-name="Layer 1" xmlns="http://www.w3.org/2000/svg" xmlns:xlink="http://www.w3.org/1999/xlink" viewBox="0 0 266.79 282.48"><defs><style>.cls-1{fill:#00b39d;}.cls-1,.cls-10,.cls-11,.cls-12,.cls-2,.cls-3,.cls-4,.cls-5,.cls-6,.cls-7,.cls-8,.cls-9{stroke:#000;}.cls-1,.cls-10,.cls-11,.cls-12,.cls-2,.cls-3,.cls-4,.cls-5,.cls-6,.cls-7{stroke-miterlimit:10;}.cls-1,.cls-10,.cls-11,.cls-12,.cls-2,.cls-3,.cls-4,.cls-6,.cls-7{stroke-width:3px;}.cls-2{fill:#e6e7e8;}.cls-3{fill:#ff9811;}.cls-4{fill:#cc7400;}.cls-5{stroke-width:2px;}.cls-6{fill:#5aaae7;}.cls-7{fill:#1e81ce;}.cls-8{fill:#c49a6c;}.cls-8,.cls-9{stroke-miterlimit:10;stroke-width:3px;}.cls-9{fill:#8b5e3c;}.cls-10{fill:#a97c50;}.cls-11{fill:url(#linear-gradient);}.cls-12{fill:url(#linear-gradient-2);}</style><linearGradient id="linear-gradient" x1="34.34" y1="14.69" x2="34.5" y2="27.67" gradientTransform="matrix(1, 0, 0, -1, -2.71, 282.9)" gradientUnits="userSpaceOnUse"><stop offset="0" stop-color="#a97c50"/><stop offset="0.12" stop-color="#9f7249"/><stop offset="0.29" stop-color="#8a5d3c"/></linearGradient><linearGradient id="linear-gradient-2" x1="238.96" y1="14.69" x2="239.12" y2="27.67" xlink:href="#linear-gradient"/></defs><title>Bookshelf1</title><rect class="cls-1" x="18.72" y="1.5" width="44.37" height="228.48"/><rect class="cls-2" x="18.72" y="31.64" width="44.37" height="19.53"/><rect class="cls-2" x="18.72" y="178.48" width="44.37" height="19.53"/><rect class="cls-3" x="63.09" y="43.22" width="64.9" height="186.75"/><rect class="cls-4" x="63.09" y="75.01" width="64.9" height="25.83"/><rect class="cls-5" x="63.09" y="190.24" width="64.9" height="5.96"/><rect class="cls-6" x="127.99" y="31.64" width="35.76" height="198.34"/><rect class="cls-7" x="127.99" y="67.42" width="35.76" height="17.73"/><rect class="cls-7" x="127.99" y="171.49" width="35.76" height="17.73"/><rect class="cls-8" x="191.46" y="44.01" width="36.42" height="192.05" transform="translate(-32.36 53.6) rotate(-15.4)"/><rect class="cls-9" x="175.86" y="75.61" width="36.42" height="15.54" transform="translate(-17.88 47.42) rotate(-15.4)"/><rect class="cls-9" x="202.75" y="173.26" width="36.42" height="15.54" transform="translate(-42.84 58.06) rotate(-15.4)"/><rect class="cls-10" x="1.5" y="229.98" width="263.79" height="25.17"/><rect class="cls-11" x="18.72" y="255.15" width="25.83" height="25.83"/><rect class="cls-12" x="223.34" y="255.15" width="25.83" height="25.83"/></svg>